<svg aria-hidden="true" style="position: absolute; width: 0; height: 0; overflow: hidden;" version="1.1" xmlns="http://www.w3.org/2000/svg" xmlns:xlink="http://www.w3.org/1999/xlink">
<defs>
<symbol id="icon-cart" viewBox="0 0 32 32">
<path d="M11.333 25.333c-0.396 0-0.782 0.117-1.111 0.337s-0.585 0.532-0.737 0.898c-0.151 0.365-0.191 0.768-0.114 1.155s0.268 0.744 0.547 1.024c0.28 0.28 0.636 0.47 1.024 0.547s0.79 0.037 1.156-0.114c0.365-0.151 0.678-0.408 0.898-0.737s0.337-0.716 0.337-1.111c0-0.53-0.211-1.039-0.586-1.414s-0.884-0.586-1.414-0.586zM25.333 21.333h-16c-0.354 0-0.693-0.141-0.943-0.391s-0.391-0.589-0.391-0.943c0-0.354 0.14-0.693 0.391-0.943s0.589-0.391 0.943-0.391h11.322c0.869-0.003 1.713-0.287 2.406-0.81s1.199-1.257 1.44-2.091l2.114-7.399c0.057-0.198 0.067-0.407 0.029-0.61s-0.122-0.394-0.246-0.559c-0.124-0.165-0.285-0.298-0.47-0.391s-0.388-0.14-0.595-0.14h-16.348c-0.276-0.777-0.785-1.45-1.457-1.927s-1.475-0.736-2.3-0.74h-1.229c-0.354 0-0.693 0.14-0.943 0.391s-0.391 0.589-0.391 0.943c0 0.354 0.14 0.693 0.391 0.943s0.589 0.391 0.943 0.391h1.229c0.289 0.001 0.571 0.096 0.802 0.27s0.399 0.419 0.48 0.697l0.207 0.726 0 0.007 2.188 7.656c-1.018 0.109-1.955 0.605-2.619 1.385s-1.003 1.784-0.948 2.807c0.055 1.022 0.5 1.985 1.243 2.689s1.728 1.097 2.752 1.097h16c0.354 0 0.693-0.141 0.943-0.391s0.391-0.589 0.391-0.943c0-0.354-0.141-0.693-0.391-0.943s-0.589-0.391-0.943-0.391zM23.566 9.333l-1.628 5.699c-0.080 0.278-0.249 0.523-0.48 0.697s-0.513 0.269-0.802 0.27h-8.982l-0.34-1.19-1.564-5.477h13.797zM22 25.333c-0.396 0-0.782 0.117-1.111 0.337s-0.585 0.532-0.737 0.898c-0.151 0.365-0.191 0.768-0.114 1.155s0.268 0.744 0.547 1.024c0.28 0.28 0.636 0.47 1.024 0.547s0.79 0.037 1.155-0.114 0.678-0.408 0.898-0.737c0.22-0.329 0.337-0.716 0.337-1.111 0-0.53-0.211-1.039-0.586-1.414s-0.884-0.586-1.414-0.586z"></path>
</symbol>
<symbol id="icon-search" viewBox="0 0 32 32">
<path d="M27.613 25.72l-4.533-4.52c1.463-1.863 2.256-4.164 2.253-6.533 0-2.11-0.626-4.172-1.798-5.926s-2.838-3.121-4.787-3.929-4.094-1.019-6.163-0.607c-2.069 0.412-3.97 1.427-5.462 2.919s-2.508 3.392-2.919 5.462c-0.412 2.069-0.2 4.214 0.607 6.163s2.175 3.615 3.929 4.787c1.754 1.172 3.816 1.798 5.926 1.798 2.369 0.003 4.67-0.791 6.533-2.253l4.52 4.533c0.124 0.125 0.271 0.224 0.434 0.292s0.337 0.103 0.513 0.103 0.35-0.035 0.513-0.103c0.162-0.068 0.31-0.167 0.434-0.292s0.224-0.271 0.292-0.434c0.068-0.163 0.103-0.337 0.103-0.513s-0.035-0.35-0.103-0.513c-0.068-0.162-0.167-0.31-0.292-0.434zM6.667 14.667c0-1.582 0.469-3.129 1.348-4.445s2.128-2.341 3.59-2.946c1.462-0.606 3.070-0.764 4.622-0.455s2.977 1.071 4.096 2.189c1.119 1.119 1.881 2.544 2.189 4.096s0.15 3.16-0.455 4.622-1.631 2.711-2.947 3.59c-1.316 0.879-2.862 1.348-4.445 1.348-2.122 0-4.157-0.843-5.657-2.343s-2.343-3.535-2.343-5.657z"></path>
</symbol>
<symbol id="icon-logo" viewBox="0 0 52 32">
<path d="M32 16c0 8.837-7.163 16-16 16s-16-7.163-16-16c0-8.837 7.163-16 16-16s16 7.163 16 16z"></path>
<path stroke-linejoin="miter" stroke-linecap="butt" stroke-miterlimit="4" stroke-width="5.3333" d="M49.333 16c0 7.364-5.97 13.333-13.333 13.333s-13.333-5.97-13.333-13.333c0-7.364 5.97-13.333 13.333-13.333s13.333 5.97 13.333 13.333z"></path>
</symbol>
</defs>
</svg>
