<svg width="96" height="96" viewBox="0 0 96 96" fill="none" xmlns="http://www.w3.org/2000/svg">
<path d="M74.9479 29.3799C74.6238 28.57 74.1271 27.8405 73.4922 27.2423C72.8573 26.644 72.0996 26.1914 71.2719 25.9159L61.8199 22.7639L59.2959 17.7159C58.8 16.7172 58.0343 15.8772 57.0856 15.2911C56.1369 14.7051 55.043 14.3964 53.9279 14.3999H42.8719C41.7568 14.3964 40.663 14.7051 39.7142 15.2911C38.7655 15.8772 37.9999 16.7172 37.5039 17.7159L34.9799 22.7639L25.5279 25.9159C24.7002 26.1914 23.9425 26.644 23.3077 27.2423C22.6728 27.8405 22.176 28.57 21.8519 29.3799L15.1159 46.2239C14.6407 47.4051 14.3976 48.6668 14.3999 49.9399V74.3999C14.3999 75.4608 14.8213 76.4782 15.5715 77.2283C16.3216 77.9785 17.3391 78.3999 18.3999 78.3999H22.3999C23.4608 78.3999 24.4782 77.9785 25.2283 77.2283C25.9785 76.4782 26.3999 75.4608 26.3999 74.3999V68.6959L28.3999 62.0239V66.5119C28.5179 68.767 29.206 70.9552 30.3999 72.8719V78.3999C30.3999 79.4608 30.8213 80.4782 31.5715 81.2283C32.3216 81.9785 33.3391 82.3999 34.3999 82.3999H62.3999C63.4608 82.3999 64.4782 81.9785 65.2283 81.2283C65.9785 80.4782 66.3999 79.4608 66.3999 78.3999V72.8719C67.594 70.9553 68.2821 68.767 68.3999 66.5119V62.0239L70.3999 68.6959V74.3999C70.3999 75.4608 70.8213 76.4782 71.5715 77.2283C72.3216 77.9785 73.3391 78.3999 74.3999 78.3999H78.3999C79.4608 78.3999 80.4782 77.9785 81.2283 77.2283C81.9785 76.4782 82.3999 75.4608 82.3999 74.3999V49.9399C82.4026 48.668 82.1595 47.4076 81.6839 46.2279L74.9479 29.3799ZM70.3559 29.9199C68.2226 33.1278 66.269 36.4516 64.5039 39.8759C64.2919 40.6759 64.4719 39.7479 64.3999 62.3999C62.8086 62.3999 61.2825 61.7678 60.1573 60.6426C59.0321 59.5173 58.3999 57.9912 58.3999 56.3999C58.3999 55.8695 58.1892 55.3608 57.8141 54.9857C57.4391 54.6106 56.9304 54.3999 56.3999 54.3999C55.8695 54.3999 55.3608 54.6106 54.9857 54.9857C54.6106 55.3608 54.3999 55.8695 54.3999 56.3999C54.3999 59.0521 55.4535 61.5956 57.3288 63.471C59.2042 65.3463 61.7478 66.3999 64.3999 66.3999V66.5119C64.3168 67.8904 63.8921 69.2265 63.1639 70.3999H50.3999V33.4719L60.6959 26.6079C72.1199 30.4919 69.5599 29.4559 70.3559 29.9199ZM39.9999 21.7039L42.4759 26.0359L38.9959 23.7159L39.9999 21.7039ZM56.8319 21.7039L57.8359 23.7039L54.3559 26.0239L56.8319 21.7039ZM54.0879 18.4399L48.3999 28.3679L42.7279 18.4399C43.5399 18.3999 53.2559 18.3999 54.0719 18.4399H54.0879ZM36.1039 26.6079L46.3999 33.4719V70.3999H33.6359C32.9017 69.2293 32.4764 67.8916 32.3999 66.5119V66.3999C35.0521 66.3999 37.5956 65.3463 39.471 63.471C41.3463 61.5956 42.3999 59.0521 42.3999 56.3999C42.3999 55.8695 42.1892 55.3608 41.8141 54.9857C41.4391 54.6106 40.9304 54.3999 40.3999 54.3999C39.8695 54.3999 39.3608 54.6106 38.9857 54.9857C38.6106 55.3608 38.3999 55.8695 38.3999 56.3999C38.3999 57.9912 37.7678 59.5173 36.6426 60.6426C35.5173 61.7678 33.9912 62.3999 32.3999 62.3999C32.3279 39.7519 32.5079 40.6559 32.2959 39.8759C30.5321 36.4509 28.5784 33.1271 26.4439 29.9199C27.0559 29.5599 32.0239 27.9999 36.1039 26.6079ZM18.3999 74.3999V70.3999H22.3999V74.3999H18.3999ZM28.1479 48.9519L22.9119 66.3999H18.3999V49.9399C18.3996 49.1768 18.5449 48.4206 18.8279 47.7119L24.2799 34.0879L28.3999 40.9519V47.2279C28.4002 47.8118 28.3154 48.3926 28.1479 48.9519V48.9519ZM34.3999 78.3999V74.3999H62.3999V78.3999H34.3999ZM68.3999 47.2279V40.9519L72.5199 34.0879L77.9719 47.7159C78.2558 48.423 78.4011 49.178 78.3999 49.9399V66.3999H73.8879L68.6519 48.9479C68.4841 48.39 68.3992 47.8105 68.3999 47.2279V47.2279ZM74.3999 74.3999V70.3999H78.3999V74.3999H74.3999Z" fill="#393D46"/>
</svg>
